<svg width="24" height="24" viewBox="0 0 24 24" xmlns="http://www.w3.org/2000/svg">
    <path d="M6.70455 22.05C5.45682 22.05 4.2602 21.5759 3.37793 20.732C2.49566 19.8881 2 18.7435 2 17.55C2 16.3565 2.49566 15.212 3.37793 14.368C4.2602 13.5241 5.45682 13.05 6.70455 13.05C6.99923 11.7372 7.86131 10.5835 9.10113 9.84273C10.341 9.10197 11.857 8.8348 13.3157 9.10002C14.7743 9.36524 16.0562 10.1411 16.8793 11.2569C17.7024 12.3728 17.9992 13.7372 17.7045 15.05H18.7045C19.6328 15.05 20.523 15.4188 21.1794 16.0751C21.8358 16.7315 22.2045 17.6218 22.2045 18.55C22.2045 19.4783 21.8358 20.3685 21.1794 21.0249C20.523 21.6813 19.6328 22.05 18.7045 22.05H6.70455Z"/>
    <path d="M14 9L18.7827 4.12401M18.7827 4.12401L18.7773 8.36665M18.7827 4.12401L14.5401 4.11863"/>
</svg>
